<svg width="450" height="300" xmlns="http://www.w3.org/2000/svg">
 <!-- Created with Method Draw - http://github.com/duopixel/Method-Draw/ -->
 <g>
  <title>background</title>
  <rect fill="#1287cc" id="canvas_background" height="302" width="452" y="-1" x="-1"/>
  <g display="none" overflow="visible" y="0" x="0" height="100%" width="100%" id="canvasGrid">
   <rect fill="url(#gridpattern)" stroke-width="0" y="0" x="0" height="100%" width="100%"/>
  </g>
 </g>
 <g>
  <title>Layer 1</title>
  <path stroke="#000000" id="svg_11" d="m189.43501,187.05809l0,-138.00001l247.00001,138.00001l-247.00001,0z" stroke-opacity="0" stroke-width="1.5" fill="#e8f1f7"/>
  <ellipse stroke="#000000" ry="25.5" rx="32.5" id="svg_14" cy="240.94531" cx="358.5" stroke-opacity="0" stroke-width="1.5" fill="#ff0000"/>
  <line stroke="#000000" stroke-linecap="null" stroke-linejoin="null" id="svg_16" y2="136.44531" x2="293" y1="47.44531" x1="291" stroke-opacity="0" stroke-width="1.5" fill="none"/>
  <line transform="rotate(-0.6415412425994873 309.5,95.00000000000097) " stroke="#020000" stroke-linecap="null" stroke-linejoin="null" id="svg_17" y2="135" x2="309" y1="55" x1="310" stroke-width="3" fill="none"/>
  <path id="svg_18" d="m308.44,34.25809l0,0c0,3.31371 6.15608,6 13.75,6c7.59391,0 13.74999,-2.68629 13.74999,-6l0,0c0,-3.31371 6.15609,-6 13.75,-6c7.59392,0 13.74999,2.68629 13.74999,6l0,48c0,-3.31371 -6.15608,-6 -13.74999,-6c-7.59392,0 -13.75,2.68629 -13.75,6c0,3.31371 -6.15608,6 -13.74999,6c-7.59392,0 -13.75,-2.68629 -13.75,-6l0,-48z" stroke-width="2" stroke="#020000" fill="#16ff16"/>
  <path stroke="#000000" id="svg_21" d="m81.73268,273.7907c3.31924,-0.99412 6.04176,-1.91986 0.88564,-1.94696c-4.55358,0.4994 -16.33329,-3.17135 -6.89234,-4.9756c5.90638,-1.88181 19.34801,2.46475 19.41966,-4.97012c-1.06847,-4.65938 -18.40702,-1.02137 -12.7032,-7.27022c6.28171,-2.09596 18.73783,2.84239 20.84507,-3.64333c-1.93169,-6.28868 -14.01386,-2.27527 -20.08667,-4.01325c-5.88711,0.99089 -7.43748,-5.32616 -0.83023,-4.37268c15.27413,-0.67243 30.6548,0.31444 45.87631,-1.05782c2.45879,-1.11136 4.27632,-7.9478 1.17343,-8.40818c-22.17304,-0.37491 -44.38527,-0.03031 -66.52322,-1.1486c-7.95343,-0.0674 -1.87657,-6.99754 4.00056,-5.37002c5.59831,-1.49594 7.81693,-5.4184 11.92572,-9.29152c2.09965,-8.46591 -7.9915,-5.32374 -12.11266,-2.84642c-4.60187,2.46184 -12.51726,7.57192 -16.7163,10.25452c-3.68088,2.17191 -12.16136,4.58198 -17.32011,7.49339c-4.40952,1.27873 -9.23487,0.64211 -13.56583,0.87173c0,11.47036 0,22.94056 0,34.41091c12.25301,4.35365 25.14657,8.17791 38.73068,7.74043c7.95748,-0.02644 16.14353,0.2164 23.89348,-1.45627l0,0zm-50.48296,3.67897c-6.25498,-1.96115 -12.49862,-3.94729 -18.69692,-6.02519c0.29662,-14.32404 0.59324,-28.64824 0.88984,-42.97228c4.94878,-0.15336 12.29196,1.84972 15.81933,-1.09974c9.48353,-2.48377 15.64073,-7.97731 23.95439,-12.10053c5.85058,-3.75137 10.52375,-5.03172 16.56662,-7.87669c4.58982,-1.73201 7.07499,-0.84754 12.24341,-0.0924c2.25418,3.0101 5.05257,4.56586 3.60046,10.30015c-3.03004,1.24374 -6.96222,9.60306 -1.00769,9.66949c16.57746,1.2963 33.42184,-0.52568 49.86889,1.73991c4.09545,4.52442 4.8765,14.68895 -2.61916,17.55812c-7.17319,1.69234 -14.7363,0.85286 -22.10607,1.05636c-0.00045,4.28028 0.86677,9.74254 -4.95528,11.89268c-4.29896,4.57538 -4.60128,11.29685 -11.52848,14.64477c-5.82599,4.87143 -14.11943,6.37625 -22.20888,6.21564c-13.26471,0.14674 -27.22702,1.18439 -39.82044,-2.90997l0,-0.00032l0,0.00001z" fill="#fcfcfc"/>
  <path id="svg_22" d="m45.20711,172.31606c-6.32514,0.79824 -15.41249,-4.18466 -7.4049,-8.71309c6.77644,-2.94488 0.27383,-10.61338 7.4397,-14.33822c7.28648,-8.25029 15.04387,-16.68392 18.67503,-26.58266c-0.50666,-4.74228 -11.83186,-12.59229 -0.35828,-14.13041c9.46069,0.91217 6.00049,-10.83516 9.27034,-15.92515c1.9662,-7.72588 3.39544,-15.58058 3.04264,-23.49369c-6.58856,-0.15259 -13.31197,0.48364 -19.77121,-0.81557c-4.12017,-4.48538 9.30872,-6.71868 11.5246,-10.76732c4.64936,-5.81901 -6.80621,-12.2483 -1.90245,-19.12708c3.13221,-10.41302 17.6225,-17.16407 29.88337,-13.34967c12.69642,2.73075 22.08172,15.16979 16.04718,25.51675c-0.48178,1.99617 -4.25241,4.5844 -2.99311,6.17408c5.49759,3.16428 11.86297,5.92188 15.34608,10.80782c-4.93157,2.96564 -13.18342,0.70712 -19.3365,2.11588c-5.5979,4.11812 -0.06836,12.53829 0.21838,18.18827c1.7463,6.45545 3.28799,12.96782 5.28921,19.36447c4.20699,1.36102 12.84804,2.93702 8.10795,8.59092c-6.75748,4.5498 -3.44968,11.7968 0.36268,16.90243c4.74495,7.88468 12.89013,13.90794 17.88004,21.6105c1.85305,3.5561 -4.77132,9.8542 3.48472,8.38143c8.95045,1.57686 3.59449,11.86983 -4.44842,9.43794c-29.63447,0.86542 -59.32981,1.21672 -88.96499,0.25946l-1.39209,-0.10711l0,0l0.00001,0.00001z" stroke-opacity="0" stroke-width="1.5" stroke="#000000" fill="#000000"/>
  <path stroke="#000000" id="svg_23" d="m68.46055,153.432c-2.87506,0.65895 -7.00568,-3.45445 -3.36586,-7.19268c3.0802,-2.43101 0.12447,-8.76138 3.38168,-11.83624c3.31204,-6.81064 6.83812,-13.77263 8.48865,-21.94407c-0.2303,-3.91477 -5.37812,-10.39497 -0.16286,-11.6647c4.30031,0.753 2.72749,-8.94446 4.21379,-13.14626c0.89373,-6.37774 1.54338,-12.86181 1.38302,-19.39411c-2.9948,-0.12596 -6.05089,0.39924 -8.98691,-0.67326c-1.8728,-3.7027 4.23124,-5.54629 5.23845,-8.88846c2.11335,-4.80361 -3.09373,-10.11101 -0.86475,-15.78947c1.42373,-8.59598 8.01023,-14.16899 13.58334,-11.02019c5.7711,2.25424 10.03714,12.52271 7.29417,21.06416c-0.21899,1.64784 -1.93292,3.78444 -1.3605,5.09672c2.4989,2.61212 5.39226,4.88853 6.97549,8.92189c-2.24162,2.44814 -5.99246,0.58373 -8.78932,1.74667c-2.5445,3.39952 -0.03107,10.3504 0.09926,15.01448c0.79377,5.329 1.49454,10.70498 2.40419,15.98543c1.91227,1.12353 5.84002,2.42452 3.68543,7.09183c-3.07158,3.75588 -1.56804,9.7383 0.16486,13.95301c2.1568,6.50883 5.85915,11.48105 8.12729,17.83954c0.84229,2.93557 -2.16878,8.13467 1.58396,6.9189c4.06838,1.30171 1.63386,9.79859 -2.02201,7.79105c-13.47021,0.71441 -26.96809,1.00441 -40.43862,0.21418l-0.63277,-0.08842l0,0l0.00001,0.00001z" stroke-opacity="0" stroke-width="1.5" fill="#a31616"/>
 </g>
</svg>